<?xml version="1.0" encoding="UTF-8"?>
<!DOCTYPE svg PUBLIC "-//W3C//DTD SVG 1.1//EN" "http://www.w3.org/Graphics/SVG/1.1/DTD/svg11.dtd">
<!-- Creator: CorelDRAW (Evaluation Version) -->
<svg xmlns="http://www.w3.org/2000/svg" xml:space="preserve" width="3.70708in" height="1.75978in" version="1.1" style="shape-rendering:geometricPrecision; text-rendering:geometricPrecision; image-rendering:optimizeQuality; fill-rule:evenodd; clip-rule:evenodd"
viewBox="0 0 3665.83 1740.2"
 xmlns:xlink="http://www.w3.org/1999/xlink"
 xmlns:xodm="http://www.corel.com/coreldraw/odm/2003">
 <defs>
  <style type="text/css">
   <![CDATA[
    .fil2 {fill:#955199}
    .fil1 {fill:#393077}
    .fil0 {fill:#955199;fill-rule:nonzero}
    .fil3 {fill:#393077;fill-rule:nonzero}
   ]]>
  </style>
 </defs>
 <g id="Layer_x0020_1">
  <metadata id="CorelCorpID_0Corel-Layer"/>
  <g id="_527777912">
   <path class="fil0" d="M688.24 512.77l0 9.82c0,39.1 -0.11,78.18 0.12,117.27 0.04,5.49 -1.47,7.16 -6.98,6.99 -10.23,-0.37 -20.49,-0.16 -30.75,0.15 -4.64,0.15 -6.37,-1.1 -6.36,-6.1 0.15,-59.29 0.09,-118.58 0.12,-177.86 0,-9.86 3.1,-18.32 12.81,-22.44 10.83,-4.56 21.16,-2.66 30.32,4.54 2.85,2.24 5.12,5.24 7.42,8.11 36.33,45.2 72.7,90.37 108.76,135.79 4.41,5.53 6.23,5.16 10.37,-0.18 35.53,-45.83 71.39,-91.4 107.06,-137.15 6.28,-8.06 13.74,-13.49 24.42,-13.6 14.43,-0.14 24.36,9.12 24.99,23.57 0.04,1.32 0.03,2.64 0.03,3.93 0,57.97 -0.07,115.95 0.12,173.93 0.04,5.63 -0.97,7.95 -7.23,7.55 -9.16,-0.56 -18.4,-0.55 -27.56,-0.01 -6.96,0.44 -9.39,-1.35 -9.3,-8.92 0.41,-37.77 0.18,-75.54 0.18,-113.32l0 -8.69c-3.37,0.33 -3.98,2.97 -5.3,4.66 -28.55,36.94 -57.01,73.99 -85.59,110.93 -10.9,14.09 -23.64,18.59 -37.7,13.79 -7.84,-2.66 -13.14,-8.39 -18.01,-14.67 -30.16,-38.72 -60.29,-77.44 -91.97,-118.1z"/>
   <path class="fil0" d="M2850.59 515.57c-13.72,17.79 -27.45,35.54 -41.15,53.34 -15.85,20.58 -31.64,41.19 -47.52,61.74 -17.48,22.58 -39.01,22.67 -56.71,0.08 -28.3,-36.15 -56.45,-72.42 -84.67,-108.62 -1.74,-2.27 -3.55,-4.51 -5.61,-7.07 -2.46,2.79 -1.41,5.77 -1.43,8.38 -0.08,38.57 -0.2,77.12 0.11,115.66 0.05,6.42 -1.95,8.04 -7.98,7.79 -9.97,-0.41 -19.98,-0.12 -29.95,0.12 -4.05,0.12 -6.11,-0.49 -6.1,-5.4 0.16,-60.32 0.11,-120.63 0.18,-180.96 0.02,-9.57 4.36,-16.91 13.34,-20.33 11.22,-4.27 21.95,-2.31 30.68,6.04 5.28,5.04 9.64,11.06 14.24,16.77 33.68,41.93 67.44,83.81 100.84,125.99 4.63,5.81 6.36,4.85 10.38,-0.35 35.37,-45.61 71.02,-91 106.54,-136.49 4.79,-6.12 10.17,-11.29 17.95,-13.32 17.95,-4.7 32.07,6.48 32.12,26 0.17,48.28 0.06,96.51 0.06,144.78 0,10.48 -0.21,20.98 0.09,31.48 0.12,4.52 -1.43,5.95 -5.86,5.85 -10.77,-0.22 -21.55,-0.47 -32.3,0.07 -6.37,0.34 -5.82,-3.23 -5.82,-7.32 0.05,-39.08 0.03,-78.15 0.03,-117.21l0 -6.28 -1.46 -0.73z"/>
   <path class="fil0" d="M1927.6 582.13l0 -134.61c0,-11.83 0,-11.83 12.22,-11.83 8.41,0 16.83,0.21 25.23,-0.08 4.59,-0.15 6.51,1 6.5,6.06 -0.15,59.03 0.01,118.03 -0.21,177.04 -0.05,10.25 -0.62,21.29 -12.02,26.18 -11.61,5.01 -22.47,1.3 -31.4,-6.5 -26.12,-22.78 -51.85,-45.99 -77.69,-69.08 -23.5,-20.98 -46.94,-42.01 -70.43,-63.01 -1.86,-1.7 -3.82,-3.31 -5.92,-5.14 -2.13,3.18 -1.24,6.11 -1.24,8.81 -0.08,43.02 -0.18,86.02 0.11,129.05 0.03,6.57 -1.76,8.64 -8.35,8.21 -9.67,-0.58 -19.43,-0.4 -29.16,-0.15 -4.56,0.11 -6.43,-0.89 -6.41,-6.03 0.19,-60.32 0,-120.64 0.29,-180.96 0.12,-20.67 13.51,-29.19 32.92,-21.78 7.26,2.77 13.03,7.73 18.72,12.81 46.71,41.88 93.46,83.74 140.21,125.57 1.72,1.54 3.56,2.91 6.62,5.44z"/>
   <path class="fil0" d="M2188.2 582.18l0 -53.31c0,-28.84 0.14,-57.71 -0.11,-86.57 -0.04,-5.08 1.25,-6.89 6.53,-6.72 10.49,0.37 21.01,0.23 31.53,0.05 4.02,-0.1 6.15,0.51 6.12,5.44 -0.18,60.31 0.1,120.65 -0.3,180.96 -0.15,22.08 -16.52,31.15 -36.23,21.03 -5.19,-2.68 -9.53,-6.47 -13.84,-10.32 -47.31,-42.4 -94.64,-84.79 -142,-127.15 -1.68,-1.49 -3.04,-3.57 -6.49,-4.16l0 8.45c0,43.28 -0.11,86.55 0.14,129.81 0.03,5.73 -1.16,7.91 -7.31,7.56 -10.22,-0.58 -20.49,-0.36 -30.74,-0.21 -4.12,0.05 -6.09,-0.77 -6.07,-5.56 0.17,-60.33 -0.09,-120.67 0.32,-180.98 0.12,-21.56 15.11,-30.34 34.93,-21.49 6.07,2.72 11.1,6.91 16.01,11.3 47.12,42.22 94.27,84.41 141.42,126.6 1.55,1.39 3.13,2.71 6.08,5.25z"/>
   <path class="fil0" d="M1624.29 562.45c-27.6,0 -55.17,0.15 -82.74,-0.11 -5.23,-0.05 -6.85,1.46 -6.48,6.56 0.43,5.99 0.3,12.06 0.04,18.08 -0.39,8.49 3.96,12.95 11.64,15.39 10.96,3.53 22.28,3.56 33.5,3.6 41.52,0.18 83.02,0.22 124.53,-0.09 6.44,-0.05 8.78,1.48 8.34,8.19 -0.56,8.87 -0.25,17.81 -0.09,26.71 0.08,3.61 -0.99,5.18 -4.88,5.11 -51.2,-0.85 -102.46,1.77 -153.62,-1.57 -13.72,-0.9 -26.71,-5.19 -38.68,-12.17 -15.81,-9.19 -24.34,-22.85 -24.46,-41.19 -0.19,-32.51 -0.36,-65.02 0.04,-97.51 0.29,-25.38 15.82,-42.11 44.83,-50.54 22.35,-6.5 45.22,-5.33 68.01,-5.49 16.06,-0.1 16.25,-0.02 15.99,15.74 -0.14,7.74 3.43,18.08 -1.65,22.47 -4.41,3.83 -14.49,1.17 -22.07,1.33 -15.96,0.36 -32.03,-0.97 -47.74,3.3 -11.03,2.98 -13.79,6.32 -13.82,17.48 -0.03,5.77 0.39,11.58 -0.11,17.29 -0.55,6.11 1.39,7.94 7.72,7.9 53.33,-0.26 106.66,-0.18 159.99,-0.12 11.87,0.01 10.27,-1.39 10.4,10.55 0.04,6.54 -0.49,13.16 0.14,19.65 0.7,7.33 -1.28,9.82 -9.24,9.67 -26.52,-0.56 -53.07,-0.23 -79.59,-0.23z"/>
   <path class="fil0" d="M2310.14 517.31c0,-24.38 0.23,-48.8 -0.16,-73.18 -0.1,-6.36 1.88,-7.99 7.94,-7.69 9.45,0.48 18.95,0.52 28.37,0 6.13,-0.33 7.87,1.43 7.84,7.68 -0.29,42.77 -0.17,85.51 -0.17,128.27 0,21.84 4.42,29.12 26.25,31.48 35.21,3.82 70.79,4.96 106.03,-0.42 16.88,-2.57 22.07,-10.18 22.07,-26.93 0,-44.06 0.11,-88.12 -0.14,-132.18 -0.03,-5.95 1.18,-8.3 7.65,-7.91 9.93,0.62 19.97,0.35 29.93,0.08 4.55,-0.14 6.45,0.8 6.44,5.94 -0.22,47.47 0.21,94.95 -0.26,142.42 -0.32,30.52 -17.84,49.84 -49.17,56.3 -12.65,2.61 -25.41,4.27 -38.29,4.34 -33.33,0.21 -66.76,2.14 -99.96,-2.76 -15.58,-2.31 -30.22,-7.01 -41.24,-19.17 -10.74,-11.87 -13.02,-26.51 -13.1,-41.74 -0.09,-21.49 -0.03,-43.03 -0.03,-64.53z"/>
   <path class="fil0" d="M1047.69 518c0,-24.9 0.19,-49.81 -0.15,-74.69 -0.05,-5.69 1.65,-7.09 7.06,-6.85 9.97,0.44 19.97,0.45 29.93,0 5.61,-0.25 7,1.59 6.98,7.02 -0.21,45.87 -0.12,91.75 -0.11,137.65 0,14.47 3.53,19.01 17.57,22.3 13.19,3.08 26.66,2.42 40.01,2.53 32.56,0.26 65.13,0.21 97.69,-0.04 5.68,-0.04 7.97,1.16 7.58,7.33 -0.56,8.87 -0.33,17.8 -0.08,26.73 0.12,4.26 -0.98,6.04 -5.65,5.96 -44.88,-0.82 -89.85,1.65 -134.68,-1.72 -14.94,-1.13 -29.65,-4.02 -42.78,-11.95 -14.87,-9.01 -22.78,-22.39 -23.09,-39.57 -0.44,-24.9 -0.11,-49.82 -0.11,-74.7l-0.16 0z"/>
   <path class="fil0" d="M1268.98 516.7c0,-24.39 0.16,-48.76 -0.11,-73.15 -0.07,-5.36 1.18,-7.36 6.88,-7.09 9.96,0.44 19.98,0.51 29.92,-0.04 6.04,-0.32 7.33,1.62 7.29,7.4 -0.26,45.87 -0.15,91.74 -0.15,137.63 0,13.93 3.61,18.64 17.21,21.9 13.7,3.25 27.68,2.48 41.56,2.59 32.31,0.29 64.62,0.22 96.91,-0.03 5.44,-0.04 7.32,1.34 7.04,6.94 -0.48,8.87 -0.35,17.83 -0.05,26.7 0.15,4.53 -0.73,6.51 -5.92,6.4 -44.36,-0.86 -88.76,1.54 -133.11,-1.65 -14.71,-1.07 -29.16,-3.79 -42.26,-11.08 -18.24,-10.15 -25.15,-26.54 -25.18,-46.53 -0.03,-23.35 -0.01,-46.68 -0.01,-69.99z"/>
   <path class="fil0" d="M2249.63 541.2c0,-32.51 0.18,-64.99 -0.14,-97.5 -0.06,-5.84 1.39,-7.68 7.35,-7.37 10.23,0.52 20.48,0.3 30.73,0.08 4.12,-0.1 6.04,0.65 6.04,5.51 -0.17,66.55 -0.12,133.12 -0.03,199.69 0,4.1 -1.3,5.5 -5.38,5.41 -10.78,-0.22 -21.56,-0.35 -32.29,0.07 -5.52,0.21 -6.38,-2.02 -6.36,-6.84 0.16,-33 0.08,-66.05 0.08,-99.05z"/>
   <path class="fil0" d="M986.16 542.17c0,-32.78 0.12,-65.54 -0.12,-98.32 -0.05,-5.59 0.98,-7.87 7.2,-7.53 10.22,0.58 20.48,0.32 30.71,0.08 4.3,-0.1 6,0.95 5.99,5.62 -0.14,66.34 -0.15,132.66 0.01,199 0.02,5.14 -2,6.14 -6.52,6.03 -9.97,-0.26 -19.98,-0.44 -29.94,0.05 -5.89,0.29 -7.54,-1.42 -7.47,-7.4 0.32,-32.51 0.15,-65.02 0.15,-97.53z"/>
   <path class="fil1" d="M506.79 335.23c0,0 49.36,-152.78 282.07,-180.99 232.7,-28.2 477.16,61.1 627.59,230.36l230.37 4.7c-304.59,-426.19 -1022.54,-456.04 -1140.03,-54.07z"/>
   <path class="fil1" d="M679.16 1328.14c0,0 595.52,300.38 856.75,70.09l261.83 52.48c0,0 -469.88,447.92 -1118.58,-122.56z"/>
   <path class="fil2" d="M1055.74 16.88c0,0 -1219.46,-37.63 -286.05,1279.67l-174.62 -0.71c0,0 631.19,713.46 1253.09,166.87 -327.69,526.77 -1330.95,237.74 -1545.76,-317.87l191.53 12.91c0,0 -161.45,-193.28 -199.37,-424.75 -71.16,-434.15 278.03,-819.18 761.17,-716.12z"/>
   <path class="fil3" d="M1189.84 1093.21c-114.46,0 -148.07,-35.3 -148.07,-133.25l0 -121.86c0,-97.97 33.61,-133.26 148.07,-133.26l269.37 0 0 74.59 -265.37 0c-52.97,0 -66.08,15.39 -66.08,63.22l0 113.9c0,48.4 13.1,62.64 66.64,62.64l264.81 0 0 74.03 -269.37 0z"/>
   <polygon class="fil3" points="1906.59,1093.21 1906.59,938.31 1621.85,938.31 1621.85,1093.21 1535.28,1093.21 1535.28,704.83 1621.85,704.83 1621.85,863.14 1906.59,863.14 1906.59,704.83 1992.58,704.83 1992.58,1093.21 "/>
   <path class="fil3" d="M2220.07 1091.12c-114.37,-4.35 -146.59,-40.91 -142.85,-138.8l9.75 -254.97 85.91 3.3 -9.6 251.53c-1.72,44.95 12.42,63.17 67.04,65.27l230.45 8.78 -2.83 73.99 -237.87 -9.09z"/>
   <polygon class="fil3" points="2530.25,704.83 2616.82,704.83 2616.82,1093.21 2530.25,1093.21 "/>
   <path class="fil3" d="M3068.13 1083.52l-283.04 -266.5 0 276.18 -80.31 0 0 -361.05c0,-24.49 18.79,-35.88 46.13,-35.88 19.35,0 31.89,5.7 40.43,14.25l285.31 275.06 0 -280.76 82.01 0 0 361.05c0,25.63 -17.65,35.87 -43.28,35.87 -18.22,0 -33.59,-5.12 -47.26,-18.22z"/>
   <polygon class="fil3" points="3547.39,1093.21 3330.98,903.58 3330.98,1093.21 3244.99,1093.21 3244.99,704.83 3330.98,704.83 3330.98,890.47 3542.84,704.83 3659.59,704.83 3437.47,893.31 3665.83,1093.21 "/>
   <polygon class="fil1" points="650.86,864.24 909.51,864.24 909.51,933.16 650.86,933.16 "/>
   <path class="fil1" d="M985.1 1093.22l0 -73.49 -271.13 0c-50.69,0 -62.08,-12.53 -62.08,-59.22l0 -122.47c0,-44.98 11.96,-59.82 62.08,-59.82l95.7 0 0 -73.46 -95.7 0c-114.48,0 -148.08,35.31 -148.08,133.28l0 108.66c19.7,38.27 40.63,75.9 62.41,112.94 5.3,9.02 10.66,18.01 16.07,26.98 18.91,4.53 41.89,6.61 69.6,6.61l271.13 0z"/>
   <path class="fil1" d="M498.5 779.37l13.14 0 0 -74.62 -38.91 0c7.73,25.19 16.41,50.12 25.77,74.62z"/>
   <path class="fil1" d="M280.29 779.42c-3.61,-15.19 -6.77,-30.82 -9.32,-46.46 -1.5,-9.48 -2.86,-18.95 -4.05,-28.26l-175.49 0 0 0.05 -91.43 0 0 74.62 91.43 0 0 0.05 71.48 0 0 313.79 87.13 0 0 -170.5 0 -143.29 30.26 0z"/>
  </g>
 </g>
</svg>
